<svg 
          width="30" 
          height="30" fill="none" 
          xmlns="http://www.w3.org/2000/svg">
          <path d="M 29.377880868418213 14.759168629824803 L 16.59171171627268 1.2281139261611134 L 15.734669035441476 0.3206712692801922 C 15.539392492648854 0.11527594964901236 15.275312552785275 4.978971042309261e-16 15.00005958066923 0 C 14.724806608553186 0 14.460726668689604 0.11527594964901236 14.265450125896983 0.3206712692801922 L 0.622238482265595 14.759168629824803 C 0.42214387354868055 14.970204533690632 0.2640057953814008 15.221543955190242 0.15715861046535465 15.498352287263076 C 0.05031142554930852 15.77516061933591 -0.003079494204149575 16.071828151644887 0.0001371590389926647 16.370842751728386 C 0.013373358350380664 17.60412384565482 0.9829248955032484 18.58864606135318 2.1477104427947817 18.58864606135318 L 3.5540568511340287 18.58864606135318 L 3.5540568511340287 30.000000000000004 L 26.446063572506745 30.000000000000004 L 26.446063572506745 18.58864606135318 L 27.882189964582153 18.58864606135318 C 28.448037489335228 18.58864606135318 28.980794074497112 18.35390266291421 29.38118911032327 17.929962282700334 C 29.57834206550595 17.721887165563075 29.734550951267657 17.474466891322315 29.840768136877465 17.20202902007372 C 29.946985322487272 16.929591148825125 30.001100637752906 16.637549522088104 29.999981822846674 16.3428140642552 C 29.999981822846674 15.747195367029963 29.77827590424437 15.183109010038677 29.377880868418213 14.759168629824803 L 29.377880868418213 14.759168629824803 Z M 16.853127456650686 27.47737963528135 L 13.146991704687773 27.47737963528135 L 13.146991704687773 20.329955268578495 L 16.853127456650686 20.329955268578495 L 16.853127456650686 27.47737963528135 Z M 24.063547731959158 16.066025696634526 L 24.063547731959158 27.47737963528135 L 18.970919314915207 27.47737963528135 L 18.970919314915207 19.48908181367228 C 18.970919314915207 18.714777493914145 18.378599417179874 18.08762605549525 17.647299403499883 18.08762605549525 L 12.352819757838578 18.08762605549525 C 11.621519744158586 18.08762605549525 11.029199846423252 18.714777493914145 11.029199846423252 19.48908181367228 L 11.029199846423252 27.47737963528135 L 5.936572439221154 27.47737963528135 L 5.936572439221154 16.066025696634526 L 2.759884904284833 16.066025696634526 L 15.003367822574287 3.1130720278318074 L 15.76775953322686 3.9224124074112754 L 27.243543761260998 16.066025696634526 L 24.063547731959158 16.066025696634526 Z" fill="rgb(255,255,255)"/>
        </svg>