<svg fill="none" height="8" viewBox="0 0 35 8" width="35" xmlns="http://www.w3.org/2000/svg">
    <path
        d="M4.03846 8C2.9674 8 1.9402 7.57857 1.18284 6.82843C0.42548 6.07828 0 5.06087 0 4C0 2.93913 0.42548 1.92172 1.18284 1.17157C1.9402 0.421427 2.9674 0 4.03846 0C5.10953 0 6.13673 0.421427 6.89409 1.17157C7.65144 1.92172 8.07692 2.93913 8.07692 4C8.07692 5.06087 7.65144 6.07828 6.89409 6.82843C6.13673 7.57857 5.10953 8 4.03846 8ZM17.5 8C16.4289 8 15.4017 7.57857 14.6444 6.82843C13.887 6.07828 13.4615 5.06087 13.4615 4C13.4615 2.93913 13.887 1.92172 14.6444 1.17157C15.4017 0.421427 16.4289 0 17.5 0C18.5711 0 19.5983 0.421427 20.3556 1.17157C21.113 1.92172 21.5385 2.93913 21.5385 4C21.5385 5.06087 21.113 6.07828 20.3556 6.82843C19.5983 7.57857 18.5711 8 17.5 8ZM30.9615 8C29.8905 8 28.8633 7.57857 28.1059 6.82843C27.3486 6.07828 26.9231 5.06087 26.9231 4C26.9231 2.93913 27.3486 1.92172 28.1059 1.17157C28.8633 0.421427 29.8905 0 30.9615 0C32.0326 0 33.0598 0.421427 33.8172 1.17157C34.5745 1.92172 35 2.93913 35 4C35 5.06087 34.5745 6.07828 33.8172 6.82843C33.0598 7.57857 32.0326 8 30.9615 8Z"
        fill="#F6F6F6" />
</svg>
