<svg 
          width="11.250288963317871" 
          height="11.250287055969238" fill="none" 
          xmlns="http://www.w3.org/2000/svg">
          <path d="M 5.625002324578887 11.250000059648741 C 4.512482357221706 11.250000059648741 3.4249459378895435 10.920099186219527 2.4999194244520697 10.302016344330836 C 1.574892911014596 9.683933502442144 0.8539231070999491 8.805429104098064 0.4281801705317763 7.777594921088231 C 0.0024372339636035134 6.749760738078399 -0.10895654266651462 5.618761659649052 0.1080853276370176 4.527618636435455 C 0.32512719794054984 3.436475613221858 0.8608562822375166 2.434196675589204 1.6475266852575043 1.6475264059395436 C 2.434197088277492 0.8608561362898828 3.4364761958342855 0.3251271428192175 4.527619404037843 0.10808530931247477 C 5.6187626122414 -0.10895652419426798 6.749761882417814 0.002437233550400375 7.7775962396843665 0.42818009793907535 C 8.80543059695092 0.8539229623277503 9.68393514423468 1.5748926440108018 10.302018090911762 2.4999190006213654 C 10.920101037588845 3.424945357231929 11.250001966948712 4.512481592185619 11.250001966948716 5.625001370928672 C 11.257523119506388 6.365777319124901 11.117164948701928 7.100608934263891 10.837145619978385 7.786462302729049 C 10.557126291254841 8.472315671194206 10.143075131908093 9.09540396137047 9.619240317646556 9.619238686822234 C 9.095405503385019 10.143073412273997 8.472317107571753 10.557124501423445 7.786463622828541 10.837143782673143 C 7.1006101380853295 11.117163063922842 6.365778398364622 11.257521210931294 5.625002324578887 11.250000059648741 L 5.625002324578887 11.250000059648741 Z M 5.625002324578887 1.8750019470921142 C 5.129388372916089 1.863456398496822 4.636582247101676 1.952562241702191 4.176392174582242 2.1369303459888096 C 3.7162021020628084 2.321298450275428 3.2981915551123118 2.5970969829220727 2.947644489170214 2.947643989433211 C 2.5970974232281163 3.2981909959443496 2.321298843823202 3.71620147202628 2.1369307082792255 4.176391466526126 C 1.952562572735249 4.636581461025972 1.8634567144230734 5.129387503291146 1.875002264975772 5.625001370928672 C 1.8634567144230734 6.120615238566198 1.952562572735249 6.613420386761837 2.1369307082792255 7.073610381261683 C 2.321298843823202 7.533800375761529 2.5970974232281163 7.951811298878227 2.947644489170214 8.302358305389365 C 3.2981915551123118 8.652905311900504 3.7162021020628084 8.92870384454715 4.176392174582242 9.113071948833767 C 4.636582247101676 9.297440053120384 5.129388372916089 9.386545896325753 5.625002324578887 9.375000347730461 C 6.120616276241685 9.386545896325753 6.613421507986413 9.297440053120384 7.073611580505847 9.113071948833767 C 7.5338016530252805 8.92870384454715 7.951812647010619 8.652905311900504 8.302359712952716 8.302358305389365 C 8.652906778894813 7.951811298878227 8.928705358299728 7.533800375761529 9.113073493843705 7.073610381261683 C 9.297441629387682 6.613420386761837 9.386547487699858 6.120615238566198 9.37500193714716 5.625001370928672 C 9.386547487699858 5.129387503291146 9.297441629387682 4.636581461025972 9.113073493843705 4.176391466526126 C 8.928705358299728 3.71620147202628 8.652906778894813 3.2981909959443496 8.302359712952716 2.947643989433211 C 7.951812647010619 2.5970969829220727 7.5338016530252805 2.321298450275428 7.073611580505847 2.1369303459888096 C 6.613421507986413 1.952562241702191 6.120616276241685 1.863456398496822 5.625002324578887 1.8750019470921142 Z" fill="rgb(255,255,255)"/>
        </svg>