<svg 
          width="12.471334457397461" 
          height="12.472000122070312" fill="none" 
          xmlns="http://www.w3.org/2000/svg">
          <path d="M 5.333333605224221 10.666666666666666 C 6.516651406307476 10.666423590504564 7.665870024159248 10.27028719584147 8.59800064685889 9.541333516438801 L 11.528666766111531 12.472000122070312 L 12.471334457397461 11.5293337504069 L 9.540667702361912 8.598666508992512 C 10.270000981323586 7.666442871093749 10.66638261238019 6.516958236694336 10.666667210448441 5.333333333333333 C 10.666667210448443 2.392666816711426 8.27400027175996 0 5.333333605224221 0 C 2.3926669386884827 0 0 2.392666816711426 0 5.333333333333333 C 0 8.27399984995524 2.3926669386884827 10.666666666666666 5.333333605224221 10.666666666666666 Z M 5.333333605224221 1.3333333333333333 C 7.539333727857615 1.3333333333333333 9.333333809142387 3.127333323160807 9.333333809142387 5.333333333333333 C 9.333333809142387 7.539333343505859 7.539333727857615 9.333333333333332 5.333333605224221 9.333333333333332 C 3.1273334825908257 9.333333333333332 1.3333334013060552 7.539333343505859 1.3333334013060552 5.333333333333333 C 1.3333334013060552 3.127333323160807 3.1273334825908257 1.3333333333333333 5.333333605224221 1.3333333333333333 Z" fill="rgb(0,0,0)"/>
        </svg>